# xmcd
#
# Track frame offsets: 
#        150
#        20224
#        37125
#        55964
#        78512
#        104136
#        131664
#        151590
#        169538
#        189742
#        214185
#        229984
#        248905
#        280936
#
# Disc length: 4125 seconds
#
# Revision: 0
# Processed by: cddbd v1.4PL0 Copyright (c) Steve Scherf et al.
# Submitted via: ExactAudioCopy v0.90b4
#
DISCID=cd101b0e
DTITLE=Van Morrison - Sweet Thing y Olé, disc 1
DYEAR=2003
DGENRE=Celtic
TTITLE0=Centerpiece
TTITLE1=Whatever Happened To PJ Proby
TTITLE2=Talk Is Cheap
TTITLE3=When The Leaves Come Falling Down
TTITLE4=Raincheck
TTITLE5=Fire In The Belly
TTITLE6=Only A Dream
TTITLE7=Allow Me > Mama Don't Allow
TTITLE8=All Work And No Play
TTITLE9=Foggy Mountain Top
TTITLE10=Here Comes The Night
TTITLE11=Whining Boy Moan
TTITLE12=Sweet Thing
TTITLE13=Streets Of Arklow
EXTD=
EXTT0=
EXTT1=
EXTT2=
EXTT3=
EXTT4=
EXTT5=
EXTT6=
EXTT7=
EXTT8=
EXTT9=
EXTT10=
EXTT11=
EXTT12=
EXTT13=
PLAYORDER=
